<svg width="36" height="36" viewBox="0 0 36 36" fill="none" xmlns="http://www.w3.org/2000/svg">
<g clip-path="url(#clip0_650_7)">
<path fill-rule="evenodd" clip-rule="evenodd" d="M18 36C22.7739 36 27.3523 34.1036 30.7279 30.7279C34.1036 27.3523 36 22.7739 36 18C36 13.2261 34.1036 8.64773 30.7279 5.27208C27.3523 1.89642 22.7739 0 18 0C13.2261 0 8.64773 1.89642 5.27208 5.27208C1.89642 8.64773 0 13.2261 0 18C0 22.7739 1.89642 27.3523 5.27208 30.7279C8.64773 34.1036 13.2261 36 18 36ZM11.0858 11.2275C10.4453 12.1935 10.125 13.146 10.125 14.085C10.125 14.5425 10.3275 14.967 10.7325 15.3585C11.1375 15.75 11.6333 15.945 12.2198 15.9435C13.2173 15.9435 13.8945 15.384 14.2515 14.265C14.6295 13.1955 15.0915 12.3855 15.6375 11.835C16.1835 11.286 17.034 11.0115 18.189 11.0115C19.176 11.0115 19.9823 11.2837 20.6078 11.8282C21.2318 12.3742 21.5437 13.0433 21.5437 13.8353C21.5465 14.2326 21.4407 14.6231 21.2378 14.9648C21.0293 15.3116 20.775 15.6287 20.4817 15.9075C20.0086 16.3407 19.5224 16.7594 19.0237 17.163C18.2587 17.7975 17.6498 18.345 17.1968 18.8055C16.7468 19.2675 16.3845 19.8023 16.11 20.4098C15.3855 23.211 19.1475 23.436 20.016 21.4358C20.121 21.2438 20.2808 21.0308 20.4953 20.7968C20.7113 20.5643 20.9978 20.2943 21.3548 19.9868C22.2651 19.2286 23.1608 18.4529 24.0413 17.6602C24.5393 17.2012 24.969 16.6537 25.3305 16.0177C25.7039 15.3406 25.8918 14.5768 25.875 13.8038C25.875 12.7358 25.557 11.7458 24.921 10.8338C24.2865 9.92025 23.3865 9.19875 22.221 8.66925C21.0555 8.13975 19.7115 7.875 18.189 7.875C16.551 7.875 15.1177 8.19225 13.8892 8.82675C12.6607 9.46125 11.7263 10.263 11.0858 11.2275ZM15.9007 27.1575C15.9007 27.7542 16.1378 28.3265 16.5598 28.7485C16.9817 29.1704 17.554 29.4075 18.1508 29.4075C18.7475 29.4075 19.3198 29.1704 19.7417 28.7485C20.1637 28.3265 20.4008 27.7542 20.4008 27.1575C20.4008 26.5608 20.1637 25.9885 19.7417 25.5665C19.3198 25.1446 18.7475 24.9075 18.1508 24.9075C17.554 24.9075 16.9817 25.1446 16.5598 25.5665C16.1378 25.9885 15.9007 26.5608 15.9007 27.1575Z" fill="#08D40A"/>
</g>
<defs>
<clipPath id="clip0_650_7">
<rect width="36" height="36" fill="white"/>
</clipPath>
</defs>
</svg>
