<svg width="24" height="24" viewBox="0 0 24 24" fill="none" xmlns="http://www.w3.org/2000/svg">
<g clip-path="url(#clip0_849_174)">
<path d="M1.51172 7.86328C1.51172 8.23047 1.55469 8.60938 1.64062 9H0.105469C0.0664062 8.8125 0.0429688 8.625 0.0351562 8.4375C0.0273438 8.25 0.0195312 8.0625 0.0117188 7.875C0.0117188 6.99219 0.175781 6.16406 0.503906 5.39062C0.832031 4.61719 1.28516 3.94141 1.86328 3.36328C2.44141 2.78516 3.11719 2.33203 3.89062 2.00391C4.66406 1.67578 5.49219 1.50781 6.375 1.5C7.21875 1.5 8.03125 1.66016 8.8125 1.98047C9.59375 2.30078 10.2852 2.76172 10.8867 3.36328L12 4.48828L13.1133 3.36328C13.707 2.76172 14.3945 2.30078 15.1758 1.98047C15.957 1.66016 16.7734 1.5 17.625 1.5C18.5 1.5 19.3242 1.66406 20.0977 1.99219C20.8711 2.32031 21.543 2.77344 22.1133 3.35156C22.6836 3.92969 23.1367 4.60156 23.4727 5.36719C23.8086 6.13281 23.9766 6.95703 23.9766 7.83984C23.9766 8.60547 23.8438 9.34375 23.5781 10.0547C23.3125 10.7656 22.9336 11.4141 22.4414 12H16.9336L15.75 10.8047L14.5664 12H12.4336L15.75 8.69531L17.5664 10.5H21.7266C21.9766 10.1016 22.168 9.67969 22.3008 9.23438C22.4336 8.78906 22.5 8.33203 22.5 7.86328C22.5 7.18359 22.375 6.55078 22.125 5.96484C21.875 5.37891 21.5273 4.87109 21.082 4.44141C20.6367 4.01172 20.1211 3.67188 19.5352 3.42188C18.9492 3.17188 18.3125 3.04688 17.625 3.04688C16.9844 3.04688 16.3672 3.16406 15.7734 3.39844C15.1797 3.63281 14.6484 3.97656 14.1797 4.42969L12 6.60938L9.82031 4.42969C9.35156 3.96094 8.82812 3.60547 8.25 3.36328C7.67188 3.12109 7.04688 3 6.375 3C5.70312 3 5.07031 3.125 4.47656 3.375C3.88281 3.625 3.36719 3.97266 2.92969 4.41797C2.49219 4.86328 2.14844 5.37891 1.89844 5.96484C1.64844 6.55078 1.51953 7.18359 1.51172 7.86328ZM3.60938 12L11.8242 20.2148C11.8867 20.5352 11.9688 20.8477 12.0703 21.1523C12.1719 21.457 12.3047 21.7539 12.4688 22.043L12 22.5117L1.86328 12.3867C1.58984 12.1133 1.34766 11.8203 1.13672 11.5078C0.925781 11.1953 0.742188 10.8594 0.585938 10.5H3.43359L6.75 7.19531L12 12.4336V14.5664L6.75 9.30469L4.06641 12H3.60938ZM24 18.7617C24 19.4883 23.8633 20.168 23.5898 20.8008C23.3164 21.4336 22.9453 21.9844 22.4766 22.4531C22.0078 22.9219 21.4531 23.2969 20.8125 23.5781C20.1719 23.8594 19.4922 23.9961 18.7734 23.9883C18.0469 23.9883 17.3672 23.8516 16.7344 23.5781C16.1016 23.3047 15.5469 22.9336 15.0703 22.4648C14.5938 21.9961 14.2188 21.4414 13.9453 20.8008C13.6719 20.1602 13.5352 19.4805 13.5352 18.7617C13.5352 18.0508 13.6719 17.3711 13.9453 16.7227C14.2188 16.0742 14.6094 15.5 15.1172 15H13.5117V13.5H18.0117V18H16.5234V15.7617C16.0547 16.1211 15.6875 16.5586 15.4219 17.0742C15.1562 17.5898 15.0234 18.1484 15.0234 18.75C15.0234 19.2656 15.1211 19.75 15.3164 20.2031C15.5117 20.6562 15.7812 21.0547 16.125 21.3984C16.4688 21.7422 16.8672 22.0117 17.3203 22.207C17.7734 22.4023 18.2617 22.5039 18.7852 22.5117C19.3008 22.5117 19.7852 22.4141 20.2383 22.2188C20.6914 22.0234 21.0859 21.7578 21.4219 21.4219C21.7578 21.0859 22.0273 20.6875 22.2305 20.2266C22.4336 19.7656 22.5312 19.2773 22.5234 18.7617C22.5234 18.3633 22.4648 17.9805 22.3477 17.6133C22.2305 17.2461 22.0586 16.9062 21.832 16.5938C21.6055 16.2812 21.3438 16.0078 21.0469 15.7734C20.75 15.5391 20.4062 15.3555 20.0156 15.2227L20.5195 13.8164C21.043 14.0039 21.5156 14.2617 21.9375 14.5898C22.3594 14.918 22.7266 15.2969 23.0391 15.7266C23.3516 16.1562 23.5859 16.6328 23.7422 17.1562C23.8984 17.6797 23.9844 18.2148 24 18.7617Z" fill="#08D40A"/>
</g>
<defs>
<clipPath id="clip0_849_174">
<rect width="24" height="24" fill="white"/>
</clipPath>
</defs>
</svg>
