<svg width="24" height="24" viewBox="0 0 24 24" fill="none" xmlns="http://www.w3.org/2000/svg">
<g clip-path="url(#clip0_849_178)">
<path fill-rule="evenodd" clip-rule="evenodd" d="M15.5711 15.4593C15.5711 15.0047 15.7517 14.5687 16.0732 14.2472C16.3947 13.9257 16.8307 13.7451 17.2853 13.7451C17.7399 13.7451 18.176 13.9257 18.4974 14.2472C18.8189 14.5687 18.9995 15.0047 18.9995 15.4593V22.8567C18.9995 23.0082 18.9393 23.1536 18.8322 23.2607C18.725 23.3679 18.5797 23.4281 18.4281 23.4281C18.2766 23.4281 18.1312 23.3679 18.0241 23.2607C17.9169 23.1536 17.8567 23.0082 17.8567 22.8567V15.4593C17.8567 15.3078 17.7965 15.1624 17.6894 15.0553C17.5822 14.9481 17.4369 14.8879 17.2853 14.8879C17.1338 14.8879 16.9884 14.9481 16.8813 15.0553C16.7741 15.1624 16.7139 15.3078 16.7139 15.4593V15.6553C16.7139 15.8069 16.6537 15.9522 16.5465 16.0594C16.4394 16.1665 16.2941 16.2267 16.1425 16.2267C15.991 16.2267 15.8456 16.1665 15.7385 16.0594C15.6313 15.9522 15.5711 15.8069 15.5711 15.6553V15.4593Z" fill="#08D40A"/>
<path fill-rule="evenodd" clip-rule="evenodd" d="M7.7172 8.00024C6.58811 8.00024 5.68644 8.37737 5.06704 8.98134C4.77826 9.26197 4.54793 9.59702 4.38934 9.96715C4.23076 10.3373 4.14706 10.7352 4.14308 11.1378C4.13793 11.5404 4.21447 11.9399 4.36807 12.3122C4.52168 12.6844 4.74915 13.0216 5.03675 13.3034C5.63273 13.888 6.49783 14.2565 7.58578 14.2839L8.14289 14.2982V21.8664C8.14289 22.019 8.30631 22.2699 8.68515 22.2847C9.0657 22.2996 9.26684 22.0579 9.28398 21.8962L9.84281 16.5713H12.157L12.7158 21.8967C12.733 22.0579 12.9341 22.2996 13.3146 22.2847C13.6935 22.2699 13.8569 22.019 13.8569 21.8664V9.28475L14.6649 9.65216C15.2951 9.93844 15.7048 10.3036 15.9757 10.6321C16.2728 10.9938 16.5551 11.4886 16.6288 12.0326L16.6299 12.044L16.6311 12.0532C16.6608 12.3458 16.9396 12.5983 17.2973 12.5692C17.6402 12.5417 17.8841 12.2458 17.859 11.9526C17.8338 11.729 17.7832 11.5089 17.7082 11.2967C17.5425 10.8019 17.2872 10.3419 16.955 9.93958C16.1219 8.92705 14.5969 8.00024 11.9004 8.00024H7.7172ZM4.26936 8.16309C5.12646 7.3277 6.32641 6.85744 7.7172 6.85744H11.8999C14.8854 6.85744 16.7556 7.89853 17.8379 9.21333C18.2594 9.72426 18.5833 10.3084 18.7932 10.9367C18.8847 11.2132 18.9669 11.5218 18.9967 11.8498V11.8521C19.0841 12.8389 18.3013 13.6348 17.3887 13.7085C16.4539 13.7834 15.5968 13.1229 15.4951 12.1795C15.4574 11.9143 15.3043 11.6155 15.0928 11.3584C15.063 11.3221 15.0319 11.2868 14.9997 11.2527V21.8664C14.9997 22.7721 14.202 23.3932 13.3598 23.4264C12.5198 23.4595 11.673 22.9087 11.5793 22.015L11.1279 17.7141H10.8719L10.4205 22.0156C10.3268 22.9087 9.47997 23.4595 8.64001 23.4269C7.79777 23.3938 7.00009 22.7721 7.00009 21.8664V15.3867C5.90014 15.2553 4.94876 14.8182 4.23622 14.1182C3.83905 13.7288 3.52479 13.263 3.31239 12.749C3.09998 12.2349 2.99381 11.6831 3.00028 11.127C3.00571 10.5737 3.1206 10.0271 3.33831 9.5185C3.55603 9.00991 3.87226 8.54945 4.26879 8.16366M8.14289 9.11847V13.1657L7.54635 13.1394C6.78867 13.1051 6.26812 12.848 5.93214 12.5183C5.75166 12.3393 5.6093 12.1257 5.51365 11.8902C5.418 11.6547 5.37103 11.4022 5.37559 11.1481C5.37722 10.891 5.42965 10.6368 5.52987 10.4001C5.63009 10.1634 5.77612 9.94881 5.95957 9.76873C6.30069 9.43674 6.8161 9.1819 7.54406 9.14704L8.14289 9.11847ZM7.00009 10.4218C6.85698 10.4849 6.73527 10.5882 6.64976 10.7192C6.56425 10.8501 6.51861 11.0031 6.5184 11.1595C6.51611 11.3789 6.59668 11.5698 6.73267 11.7024C6.78638 11.7555 6.87095 11.8206 7.00009 11.8761V10.4218ZM10.9999 1.71482C10.5453 1.71482 10.1092 1.89543 9.78777 2.2169C9.4663 2.53838 9.28569 2.97439 9.28569 3.42903C9.28569 3.88366 9.4663 4.31968 9.78777 4.64116C10.1092 4.96263 10.5453 5.14323 10.9999 5.14323C11.4545 5.14323 11.8905 4.96263 12.212 4.64116C12.5335 4.31968 12.7141 3.88366 12.7141 3.42903C12.7141 2.97439 12.5335 2.53838 12.212 2.2169C11.8905 1.89543 11.4545 1.71482 10.9999 1.71482ZM8.14289 3.42903C8.14289 2.6713 8.4439 1.94461 8.97969 1.40882C9.51548 0.873027 10.2422 0.572021 10.9999 0.572021C11.7576 0.572021 12.4843 0.873027 13.0201 1.40882C13.5559 1.94461 13.8569 2.6713 13.8569 3.42903C13.8569 4.18675 13.5559 4.91345 13.0201 5.44924C12.4843 5.98503 11.7576 6.28604 10.9999 6.28604C10.2422 6.28604 9.51548 5.98503 8.97969 5.44924C8.4439 4.91345 8.14289 4.18675 8.14289 3.42903Z" fill="#08D40A"/>
</g>
<defs>
<clipPath id="clip0_849_178">
<rect width="24" height="24" fill="white"/>
</clipPath>
</defs>
</svg>
