<svg width="24" height="24" viewBox="0 0 24 24" fill="none" xmlns="http://www.w3.org/2000/svg">
<path d="M19.524 13.9621C20.0799 13.2686 20.4927 12.4718 20.7386 11.6178C20.9844 10.7638 21.0585 9.86945 20.9565 8.98659C20.3801 9.24349 19.756 9.37588 19.125 9.37509C18.1899 9.37668 17.2778 9.08558 16.5165 8.54259L15.3105 9.75009L19.524 13.9621ZM18.4635 15.0241L13.7445 10.3051C13.7267 10.2889 13.7097 10.2719 13.6935 10.2541L8.976 5.53509C8.4465 6.19509 8.04 6.95709 7.788 7.78509C7.29642 7.67214 6.79779 7.59246 6.2955 7.54659C6.85631 5.5219 8.16818 3.7873 9.96368 2.6964C11.7592 1.6055 13.9031 1.24042 15.9585 1.67559C17.2193 1.94476 18.3999 2.50464 19.4061 3.31063C20.4124 4.11662 21.2165 5.14645 21.7545 6.31809C22.0035 6.86409 22.1955 7.43859 22.323 8.04009C22.7577 10.0952 22.3925 12.2388 21.3016 14.034C20.2107 15.8291 18.4764 17.1408 16.452 17.7016C16.4057 17.1993 16.3255 16.7006 16.212 16.2091C17.0306 15.9601 17.7942 15.5574 18.462 15.0226M20.607 7.48209C20.3556 6.77731 19.9886 6.11932 19.521 5.53509L17.598 7.45809C18.0532 7.727 18.5714 7.87085 19.1 7.87507C19.6287 7.87928 20.1491 7.74371 20.6085 7.48209M16.5405 6.39609L18.462 4.47609C17.8788 4.00825 17.2218 3.64073 16.518 3.38859C16.2675 3.82659 16.125 4.33359 16.125 4.87359C16.125 5.42859 16.275 5.95059 16.5405 6.39609ZM15.0135 3.04509C14.1304 2.94287 13.2358 3.01684 12.3815 3.26274C11.5272 3.50863 10.7301 3.92155 10.0365 4.47759L14.25 8.68809L15.456 7.48209C14.9138 6.72105 14.6233 5.8095 14.625 4.87509C14.625 4.22259 14.7645 3.60309 15.015 3.04359M3.75 10.5001C3.55109 10.5001 3.36032 10.5791 3.21967 10.7198C3.07902 10.8604 3 11.0512 3 11.2501V12.7501C3 14.9381 3.86919 17.0365 5.41637 18.5837C6.96354 20.1309 9.06196 21.0001 11.25 21.0001H12.75C12.9489 21.0001 13.1397 20.9211 13.2803 20.7804C13.421 20.6398 13.5 20.449 13.5 20.2501V18.7501C13.5 17.6667 13.2866 16.5939 12.872 15.593C12.4574 14.592 11.8497 13.6825 11.0836 12.9165C10.3175 12.1504 9.40807 11.5427 8.40714 11.1281C7.4062 10.7135 6.33341 10.5001 5.25 10.5001H3.75ZM1.5 11.2501C1.5 10.6534 1.73705 10.0811 2.15901 9.6591C2.58097 9.23714 3.15326 9.00009 3.75 9.00009H5.25C7.83586 9.00009 10.3158 10.0273 12.1443 11.8558C13.9728 13.6843 15 16.1642 15 18.7501V20.2501C15 20.8468 14.7629 21.4191 14.341 21.8411C13.919 22.263 13.3467 22.5001 12.75 22.5001H11.25C8.66414 22.5001 6.18419 21.4729 4.35571 19.6444C2.52723 17.8159 1.5 15.336 1.5 12.7501V11.2501ZM6.594 14.0941C6.66367 14.0242 6.74643 13.9688 6.83755 13.931C6.92867 13.8932 7.02635 13.8737 7.125 13.8737C7.22365 13.8737 7.32133 13.8932 7.41245 13.931C7.50357 13.9688 7.58633 14.0242 7.656 14.0941L9.906 16.3441C9.97573 16.4138 10.031 16.4966 10.0688 16.5877C10.1065 16.6788 10.1259 16.7765 10.1259 16.8751C10.1259 16.9737 10.1065 17.0714 10.0688 17.1625C10.031 17.2536 9.97573 17.3364 9.906 17.4061C9.83627 17.4758 9.75349 17.5311 9.66238 17.5689C9.57127 17.6066 9.47362 17.626 9.375 17.626C9.27638 17.626 9.17873 17.6066 9.08763 17.5689C8.99652 17.5311 8.91373 17.4758 8.844 17.4061L6.594 15.1561C6.52416 15.0864 6.46874 15.0037 6.43093 14.9125C6.39312 14.8214 6.37366 14.7237 6.37366 14.6251C6.37366 14.5264 6.39312 14.4288 6.43093 14.3376C6.46874 14.2465 6.52416 14.1638 6.594 14.0941Z" fill="#08D40A"/>
</svg>
